General
Complete name: Deathproof.divx
Format: AVI
Format/Info: Audio Video Interleave
File size: 342 MiB
Duration: 1h 45mn
Overall bit rate: 452 Kbps

Video
ID: 0
Format: MPEG-4 Visual
Format settings, BVOP: 2
Format settings, QPel: No
Format settings, GMC: No warppoints
Format settings, Matrix: Default (H.263)
Muxing mode: Packed bitstream
Codec ID: DX50
Codec ID/Hint: DivX 5
Duration: 1h 45mn
Bit rate: 250 Kbps
Width: 384 pixels
Height: 288 pixels
Display aspect ratio: 4:3
Frame rate: 25.000 fps
Color space: YUV
Chroma subsampling: 4:2:0
Bit depth: 8 bits
Scan type: Progressive
Compression mode: Lossy
Bits/(Pixel*Frame): 0.091
Stream size: 190 MiB (55%)
Title: Video
Writing library: DivX 2682

Audio
ID: 1
Format: MPEG Audio
Format version: Version 1
Format profile: Layer 3
Mode: Joint stereo
Mode extension: MS Stereo
Codec ID: 55
Codec ID/Hint: MP3
Duration: 1h 45mn
Bit rate mode: Constant
Bit rate: 192 Kbps
Channel(s): 2 channels
Sampling rate: 48.0 KHz
Compression mode: Lossy
Stream size: 145 MiB (42%)
Alignment: Split accross interleaves
Interleave, duration: 40 ms (1.00 video frame)
Interleave, preload duration: 500 ms
Title: Audio - en-US01 
http://www.imdb.com/title/tt1028528/

Storyline

In Austin, Texas, girlfriends Julia Lucai, Arlene, Shanna and Lanna Frank meet in a bar to drink, smoke and make out with their boyfriends before traveling alone to Lake LBJ to spend the weekend together. They meet the former Hollywood stunt man, Mike, who takes Pam out in his "death-proof" stunt car. Pam soon discovers Mike's secret. Fourteen months later, Mike turns up in Lebanon, Tennessee. Abernathy "Abbie" works in the make-up department on a film set. Zo Bell, Kim and Lee are all chased by him but the girls are tough and decide to pay-back the attack

Director:
Quentin Tarantino
Writer:
Quentin Tarantino
Stars:
Kurt Russell, Zoe Bell, Rosario Dawson 